<svg width="60" height="60" viewBox="0 0 60 60" fill="none" xmlns="http://www.w3.org/2000/svg">
<path d="M32.929 7.5H22.5C17.786 7.5 15.4289 7.5 13.9645 8.96447C12.5 10.4289 12.5 12.786 12.5 17.5V42.5C12.5 47.214 12.5 49.571 13.9645 51.0355C15.4289 52.5 17.786 52.5 22.5 52.5H37.5C42.214 52.5 44.571 52.5 46.0355 51.0355C47.5 49.571 47.5 47.214 47.5 42.5V22.0711C47.5 21.0492 47.5 20.5383 47.3098 20.0788C47.1195 19.6194 46.758 19.2581 46.0355 18.5355L36.4645 8.96447C35.742 8.2419 35.3805 7.8806 34.9213 7.6903C34.4618 7.5 33.9508 7.5 32.929 7.5Z" stroke="#000334" stroke-opacity="0.7"/>
<path d="M34 7V15.6667C34 17.7094 34 18.7308 34.5858 19.3654C35.1716 20 36.1144 20 38 20H47" stroke="#000334" stroke-opacity="0.7"/>
<path d="M26.6557 31.512V38.3056C26.1967 38.1383 25.6537 38.0884 25.0945 38.1959C23.7507 38.451 22.8252 39.4975 23.0278 40.532C23.2298 41.5671 24.4827 42.1988 25.8258 41.9432C27.0178 41.7161 27.8795 40.8665 27.9161 39.9527H27.9239V33.1761L35.7328 32.3309V37.1844C35.2732 37.0177 34.7309 36.9689 34.1717 37.0753C32.8278 37.3298 31.9028 38.3774 32.1045 39.4119C32.3062 40.4464 33.5588 41.0777 34.9025 40.8226C36.0947 40.5961 36.9566 39.7453 36.9928 38.8327H37V30.3919V28L26.6558 29.1793L26.6557 31.512ZM27.9238 31.4297L35.7327 30.4743V31.6135L27.9238 32.4592V31.4297Z" fill="#000334" fill-opacity="0.7"/>
</svg>
