<svg width="60" height="60" viewBox="0 0 60 60" fill="none" xmlns="http://www.w3.org/2000/svg">
<path d="M54.3744 14.8668L39.8661 0.35871C39.6363 0.129023 39.325 0 39.0003 0H11.2178C7.93637 0 5.26685 2.66976 5.26685 5.95124V54.0489C5.26685 57.3302 7.93649 60 11.218 60H48.782C52.0635 60 54.7331 57.3304 54.7331 54.0489V15.7327C54.733 15.408 54.604 15.0965 54.3744 14.8668ZM40.2251 4.18112L50.5525 14.5084H43.7272C42.7916 14.5084 41.912 14.144 41.2506 13.4826C40.5893 12.8213 40.225 11.9419 40.2251 11.0063V4.18112ZM52.284 54.0488C52.284 55.9799 50.713 57.5509 48.782 57.5509H11.2178C9.28672 57.5509 7.71571 55.9799 7.71571 54.0488V5.95124C7.71583 4.02011 9.28684 2.44898 11.2178 2.44898H37.7761V11.0061C37.7759 12.5958 38.3949 14.0902 39.5188 15.2142C40.6429 16.3382 42.1374 16.9572 43.7271 16.9572H52.2839L52.284 54.0488Z" fill="black"/>
<path d="M32.2373 41.1904H31.6891C31.0129 41.1904 30.4646 41.7386 30.4646 42.4149C30.4646 43.0912 31.0129 43.6394 31.6891 43.6394H32.2373C32.9135 43.6394 33.4618 43.0912 33.4618 42.4149C33.4618 41.7386 32.9135 41.1904 32.2373 41.1904Z" fill="black"/>
<path d="M27.7277 41.1904H15.8341C15.1579 41.1904 14.6096 41.7386 14.6096 42.4149C14.6096 43.0912 15.1579 43.6394 15.8341 43.6394H27.7277C28.4038 43.6394 28.9522 43.0912 28.9522 42.4149C28.9522 41.7386 28.404 41.1904 27.7277 41.1904Z" fill="black"/>
<path d="M44.1658 35.5953H15.8342C15.1581 35.5953 14.6097 36.1435 14.6097 36.8198C14.6097 37.4961 15.1581 38.0443 15.8342 38.0443H44.1658C44.8419 38.0443 45.3903 37.4961 45.3903 36.8198C45.3903 36.1435 44.8419 35.5953 44.1658 35.5953Z" fill="black"/>
<path d="M44.1658 30H15.8342C15.1581 30 14.6097 30.5482 14.6097 31.2245C14.6097 31.9008 15.1581 32.449 15.8342 32.449H44.1658C44.8419 32.449 45.3903 31.9008 45.3903 31.2245C45.3903 30.5482 44.8419 30 44.1658 30Z" fill="black"/>
<path d="M44.1658 24.4048H15.8342C15.1581 24.4048 14.6097 24.953 14.6097 25.6293C14.6097 26.3056 15.1581 26.8538 15.8342 26.8538H44.1658C44.8419 26.8538 45.3903 26.3056 45.3903 25.6293C45.3903 24.953 44.8419 24.4048 44.1658 24.4048Z" fill="black"/>
</svg>
