<svg width="20" height="20" viewBox="0 0 20 20" fill="none" xmlns="http://www.w3.org/2000/svg">
<path d="M16.5701 5.96448L12.6595 2.09566C12.5976 2.03441 12.5137 2 12.4261 2H4.93754C4.05305 2 3.3335 2.71194 3.3335 3.587V16.413C3.3335 17.2881 4.05308 18 4.93759 18H15.0627C15.9473 18 16.6668 17.2881 16.6668 16.413V6.19539C16.6668 6.1088 16.632 6.02573 16.5701 5.96448ZM12.7563 3.11497L15.54 5.86891H13.7003C13.4481 5.86891 13.211 5.77173 13.0327 5.59536C12.8545 5.41901 12.7563 5.18451 12.7563 4.93501V3.11497ZM16.0067 16.413C16.0067 16.928 15.5832 17.3469 15.0627 17.3469H4.93754C4.41703 17.3469 3.99357 16.928 3.99357 16.413V3.587C3.9936 3.07203 4.41706 2.65306 4.93754 2.65306H8.51685H12.0962V4.93496C12.0961 5.35888 12.263 5.75739 12.5659 6.05712C12.8689 6.35685 13.2717 6.52192 13.7002 6.52192H16.0067L16.0067 16.413Z" fill="#4752EB"/>
<path d="M7.81319 9.0882V11.838C7.62738 11.7703 7.40763 11.7501 7.18125 11.7936C6.63737 11.8968 6.26274 12.3204 6.34476 12.7392C6.42652 13.1581 6.93362 13.4138 7.47729 13.3104C7.95976 13.2185 8.30853 12.8746 8.32334 12.5047H8.32651V9.76177L11.4873 9.41965V11.3842C11.3012 11.3167 11.0817 11.2969 10.8554 11.34C10.3114 11.4431 9.93702 11.8671 10.0186 12.2858C10.1003 12.7045 10.6073 12.96 11.1512 12.8568C11.6338 12.7651 11.9826 12.4208 11.9972 12.0513H12.0002V8.63484V7.66669L7.81324 8.14401L7.81319 9.0882ZM8.32648 9.05488L11.4872 8.66818V9.12928L8.32648 9.47158V9.05488Z" fill="#4752EB"/>
</svg>
