<svg width="32" height="32" viewBox="0 0 32 32" fill="none" xmlns="http://www.w3.org/2000/svg">
<path d="M22 4V8H26" stroke="#4752EB"/>
<path d="M26 8.41421C26 8.149 25.8946 7.89464 25.7071 7.70711L22.2929 4.29289C22.1054 4.10536 21.851 4 21.5858 4H7C6.44772 4 6 4.44772 6 5V27C6 27.5523 6.44772 28 7 28H25C25.5523 28 26 27.5523 26 27V8.41421Z" stroke="#4752EB" stroke-width="2"/>
<path d="M13.11 10.04C9.68502 11 20.755 21.355 21.5 17.9C22.245 14.445 8.33499 19.345 10.795 21.74C13.255 24.135 16.535 9.10501 13.11 10.04Z" stroke="#4752EB"/>
</svg>
