<svg id="svg" fill="#4752EB" stroke="#4752EB" width="200" height="200" version="1.1" viewBox="144 144 512 512" xmlns="http://www.w3.org/2000/svg">
    <g id="IconSvg_bgCarrier" stroke-width="0"></g>
    <g id="IconSvg_tracerCarrier" stroke-linecap="round" stroke-linejoin="round" stroke="#CCCCCC" stroke-width="0">
      <g xmlns="http://www.w3.org/2000/svg">
  <path d="m451.91 197.71c-7.6328-7.6328-18.32-11.449-29.008-11.449h-114.5c-39.695 0-72.52 32.824-72.52 72.52v282.44c0 39.695 32.824 72.52 72.52 72.52h183.2c39.695 0 72.52-32.824 72.52-72.52l-0.003906-219.84c0-11.449-4.582-22.902-12.977-30.535zm71.754 99.234h-58.016c-10.688 0-19.082-8.3984-19.082-19.082v-53.434zm17.559 244.27c0 27.48-22.137 49.617-49.617 49.617h-183.2c-27.48 0-49.617-22.137-49.617-49.617v-282.44c0-27.48 22.137-49.617 49.617-49.617h114.5 0.76172v68.703c0 22.902 19.082 41.984 41.984 41.984h75.57v1.5273z"></path>
  <path d="m315.27 452.67c-5.3438 0-9.9219 4.582-9.9219 9.9219 0 5.3438 4.582 9.9219 9.9219 9.9219 5.3438 0 9.9219-4.582 9.9219-9.9219 0.76562-5.3398-3.8125-9.9219-9.9219-9.9219z"></path>
  <path d="m367.94 418.32c-6.1055 0-11.449 2.2891-15.266 7.6328v-6.1055h-16.793v70.992h16.793v-25.953c4.582 5.3438 9.1602 7.6328 15.266 7.6328 12.977 0 22.902-9.9219 22.902-27.48-0.76562-16.797-9.9258-26.719-22.902-26.719zm-5.3438 39.691c-3.8164 0-7.6328-2.2891-9.9219-4.582v-15.266c2.2891-3.0547 6.1055-4.582 9.9219-4.582 6.1055 0 11.449 4.582 11.449 12.215-0.76172 7.6367-5.3398 12.215-11.449 12.215z"></path>
  <path d="m433.59 425.95c-3.8164-5.3438-9.9219-7.6328-15.266-7.6328-12.977 0-22.902 9.9219-22.902 26.719 0 17.559 9.9219 27.48 22.902 27.48 6.1055 0 10.688-2.2891 15.266-7.6328v6.1055h16.031v-70.992h-16.031zm0 27.48c-2.2891 3.0547-6.1055 4.582-9.9219 4.582-6.8711 0-11.449-4.582-11.449-12.977 0-8.3984 4.582-12.215 11.449-12.215 3.8164 0 7.6328 1.5273 9.9219 4.582z"></path>
  <path d="m465.64 418.32v1.5273h-8.3984v14.504h8.3984v37.402h16.793v-37.402h10.688v-14.504h-10.688v-1.5273c0-4.582 2.2891-6.1055 5.3438-6.1055 2.2891 0 3.8164 0.76172 5.3438 1.5273l6.1055-9.9219c-3.0547-3.0547-9.1602-4.582-14.504-4.582-11.445-0.003906-19.082 6.8672-19.082 19.082z"></path>
 </g>

      </g>
     <g id="IconSvg_iconCarrier">
      <g xmlns="http://www.w3.org/2000/svg">
  <path d="m451.91 197.71c-7.6328-7.6328-18.32-11.449-29.008-11.449h-114.5c-39.695 0-72.52 32.824-72.52 72.52v282.44c0 39.695 32.824 72.52 72.52 72.52h183.2c39.695 0 72.52-32.824 72.52-72.52l-0.003906-219.84c0-11.449-4.582-22.902-12.977-30.535zm71.754 99.234h-58.016c-10.688 0-19.082-8.3984-19.082-19.082v-53.434zm17.559 244.27c0 27.48-22.137 49.617-49.617 49.617h-183.2c-27.48 0-49.617-22.137-49.617-49.617v-282.44c0-27.48 22.137-49.617 49.617-49.617h114.5 0.76172v68.703c0 22.902 19.082 41.984 41.984 41.984h75.57v1.5273z"></path>
  <path d="m315.27 452.67c-5.3438 0-9.9219 4.582-9.9219 9.9219 0 5.3438 4.582 9.9219 9.9219 9.9219 5.3438 0 9.9219-4.582 9.9219-9.9219 0.76562-5.3398-3.8125-9.9219-9.9219-9.9219z"></path>
  <path d="m367.94 418.32c-6.1055 0-11.449 2.2891-15.266 7.6328v-6.1055h-16.793v70.992h16.793v-25.953c4.582 5.3438 9.1602 7.6328 15.266 7.6328 12.977 0 22.902-9.9219 22.902-27.48-0.76562-16.797-9.9258-26.719-22.902-26.719zm-5.3438 39.691c-3.8164 0-7.6328-2.2891-9.9219-4.582v-15.266c2.2891-3.0547 6.1055-4.582 9.9219-4.582 6.1055 0 11.449 4.582 11.449 12.215-0.76172 7.6367-5.3398 12.215-11.449 12.215z"></path>
  <path d="m433.59 425.95c-3.8164-5.3438-9.9219-7.6328-15.266-7.6328-12.977 0-22.902 9.9219-22.902 26.719 0 17.559 9.9219 27.48 22.902 27.48 6.1055 0 10.688-2.2891 15.266-7.6328v6.1055h16.031v-70.992h-16.031zm0 27.48c-2.2891 3.0547-6.1055 4.582-9.9219 4.582-6.8711 0-11.449-4.582-11.449-12.977 0-8.3984 4.582-12.215 11.449-12.215 3.8164 0 7.6328 1.5273 9.9219 4.582z"></path>
  <path d="m465.64 418.32v1.5273h-8.3984v14.504h8.3984v37.402h16.793v-37.402h10.688v-14.504h-10.688v-1.5273c0-4.582 2.2891-6.1055 5.3438-6.1055 2.2891 0 3.8164 0.76172 5.3438 1.5273l6.1055-9.9219c-3.0547-3.0547-9.1602-4.582-14.504-4.582-11.445-0.003906-19.082 6.8672-19.082 19.082z"></path>
 </g>

      </g>
      </svg>