<svg width="20" height="20" viewBox="0 0 20 20" fill="none" xmlns="http://www.w3.org/2000/svg">
<path d="M2.5 4.375H3.125V16.875C3.125 17.0408 3.19085 17.1997 3.30806 17.3169C3.42527 17.4342 3.58424 17.5 3.75 17.5H8.125C8.29076 17.5 8.44973 17.4342 8.56694 17.3169C8.68415 17.1997 8.75 17.0408 8.75 16.875V13.75H12.5C12.6658 13.75 12.8247 13.6842 12.9419 13.5669C13.0592 13.4497 13.125 13.2908 13.125 13.125V10H16.25C16.4158 10 16.5747 9.93415 16.6919 9.81694C16.8092 9.69973 16.875 9.54076 16.875 9.375V4.375H17.5C17.6658 4.375 17.8247 4.30915 17.9419 4.19194C18.0592 4.07473 18.125 3.91576 18.125 3.75C18.125 3.58424 18.0592 3.42527 17.9419 3.30806C17.8247 3.19085 17.6658 3.125 17.5 3.125H2.5C2.33424 3.125 2.17527 3.19085 2.05806 3.30806C1.94085 3.42527 1.875 3.58424 1.875 3.75C1.875 3.91576 1.94085 4.07473 2.05806 4.19194C2.17527 4.30915 2.33424 4.375 2.5 4.375ZM7.5 16.25H4.375V4.375H7.5V16.25ZM11.875 12.5H8.75V4.375H11.875V12.5ZM15.625 8.75H13.125V4.375H15.625V8.75Z" fill="#000334" fill-opacity="0.7"/>
</svg>
