<svg width="61" height="61" viewBox="0 0 61 61" fill="none" xmlns="http://www.w3.org/2000/svg">
<g clip-path="url(#clip0_20552_12224)">
<path d="M33.4681 8.48975H23.0391C18.325 8.48975 15.968 8.48975 14.5035 9.95422C13.0391 11.4187 13.0391 13.7757 13.0391 18.4897V43.4897C13.0391 48.2037 13.0391 50.5607 14.5035 52.0252C15.968 53.4897 18.325 53.4897 23.0391 53.4897H38.0391C42.7531 53.4897 45.1101 53.4897 46.5746 52.0252C48.0391 50.5607 48.0391 48.2037 48.0391 43.4897V23.0608C48.0391 22.0389 48.0391 21.528 47.8488 21.0686C47.6586 20.6091 47.2971 20.2478 46.5746 19.5253L37.0036 9.95422C36.2811 9.23165 35.9196 8.87035 35.4603 8.68005C35.0008 8.48975 34.4898 8.48975 33.4681 8.48975Z" stroke="#000334" stroke-opacity="0.7"/>
<path d="M25.5391 41.282V30.6975C25.5391 29.7257 26.5991 29.1257 27.4321 29.6255L36.2526 34.918C37.0618 35.4035 37.0618 36.576 36.2526 37.0615L27.4321 42.354C26.5991 42.8537 25.5391 42.2537 25.5391 41.282Z" fill="#000334" fill-opacity="0.7"/>
<path d="M33.0391 8.48975V18.4897C33.0391 20.8468 33.0391 22.0253 33.7713 22.7575C34.5036 23.4897 35.6821 23.4897 38.0391 23.4897H48.0391" stroke="#000334" stroke-opacity="0.7"/>
</g>
<defs>
<clipPath id="clip0_20552_12224">
<rect width="60" height="60" fill="white" transform="translate(0.539062 0.989746)"/>
</clipPath>
</defs>
</svg>
