<svg width="60" height="60" viewBox="0 0 60 60" fill="none" xmlns="http://www.w3.org/2000/svg">
<path d="M48.75 15.75H37.5C37.3011 15.75 37.1103 15.671 36.9697 15.5303C36.829 15.3897 36.75 15.1989 36.75 15V3.75C36.75 3.55109 36.829 3.36032 36.9697 3.21967C37.1103 3.07902 37.3011 3 37.5 3C37.6989 3 37.8897 3.07902 38.0303 3.21967C38.171 3.36032 38.25 3.55109 38.25 3.75V14.25H48.75C48.9489 14.25 49.1397 14.329 49.2803 14.4697C49.421 14.6103 49.5 14.8011 49.5 15C49.5 15.1989 49.421 15.3897 49.2803 15.5303C49.1397 15.671 48.9489 15.75 48.75 15.75Z" fill="#000334" fill-opacity="0.7"/>
<path d="M48.75 23.2245C48.5511 23.2245 48.3603 23.1455 48.2197 23.0048C48.079 22.8642 48 22.6734 48 22.4745V15.3105L37.1895 4.5H15C14.2044 4.5 13.4413 4.81607 12.8787 5.37868C12.3161 5.94129 12 6.70435 12 7.5V22.2255C12 22.4244 11.921 22.6152 11.7803 22.7558C11.6397 22.8965 11.4489 22.9755 11.25 22.9755C11.0511 22.9755 10.8603 22.8965 10.7197 22.7558C10.579 22.6152 10.5 22.4244 10.5 22.2255V7.5C10.5 6.30653 10.9741 5.16193 11.818 4.31802C12.6619 3.47411 13.8065 3 15 3H37.5C37.5986 2.99983 37.6962 3.01908 37.7873 3.05665C37.8784 3.09423 37.9612 3.1494 38.031 3.219L49.281 14.469C49.3506 14.5388 49.4058 14.6216 49.4433 14.7127C49.4809 14.8038 49.5002 14.9014 49.5 15V22.4745C49.5 22.573 49.4806 22.6705 49.4429 22.7615C49.4052 22.8525 49.35 22.9352 49.2803 23.0048C49.2107 23.0745 49.128 23.1297 49.037 23.1674C48.946 23.2051 48.8485 23.2245 48.75 23.2245Z" fill="#000334" fill-opacity="0.7"/>
<path d="M45 57H15C13.8065 57 12.6619 56.5259 11.818 55.682C10.9741 54.8381 10.5 53.6935 10.5 52.5V41.25C10.5 41.0511 10.579 40.8603 10.7197 40.7197C10.8603 40.579 11.0511 40.5 11.25 40.5C11.4489 40.5 11.6397 40.579 11.7803 40.7197C11.921 40.8603 12 41.0511 12 41.25V52.5C12 53.2956 12.3161 54.0587 12.8787 54.6213C13.4413 55.1839 14.2044 55.5 15 55.5H45C45.7957 55.5 46.5587 55.1839 47.1213 54.6213C47.6839 54.0587 48 53.2956 48 52.5V41.25C48 41.0511 48.079 40.8603 48.2197 40.7197C48.3603 40.579 48.5511 40.5 48.75 40.5C48.9489 40.5 49.1397 40.579 49.2803 40.7197C49.421 40.8603 49.5 41.0511 49.5 41.25V52.5C49.5 53.6935 49.0259 54.8381 48.182 55.682C47.3381 56.5259 46.1935 57 45 57Z" fill="#000334" fill-opacity="0.7"/>
<path d="M41.25 42H18.75C18.5511 42 18.3603 41.921 18.2197 41.7803C18.079 41.6397 18 41.4489 18 41.25C18 41.0511 18.079 40.8603 18.2197 40.7197C18.3603 40.579 18.5511 40.5 18.75 40.5H41.25C41.4489 40.5 41.6397 40.579 41.7803 40.7197C41.921 40.8603 42 41.0511 42 41.25C42 41.4489 41.921 41.6397 41.7803 41.7803C41.6397 41.921 41.4489 42 41.25 42Z" fill="#000334" fill-opacity="0.7"/>
<path d="M30 49.5H18.75C18.5511 49.5 18.3603 49.421 18.2197 49.2803C18.079 49.1397 18 48.9489 18 48.75C18 48.5511 18.079 48.3603 18.2197 48.2197C18.3603 48.079 18.5511 48 18.75 48H30C30.1989 48 30.3897 48.079 30.5303 48.2197C30.671 48.3603 30.75 48.5511 30.75 48.75C30.75 48.9489 30.671 49.1397 30.5303 49.2803C30.3897 49.421 30.1989 49.5 30 49.5Z" fill="#000334" fill-opacity="0.7"/>
<path d="M48.75 42H11.25C10.0565 42 8.91193 41.5259 8.06802 40.6819C7.22411 39.838 6.75 38.6934 6.75 37.5V25.9755C6.75 24.782 7.22411 23.6374 8.06802 22.7935C8.91193 21.9496 10.0565 21.4755 11.25 21.4755H11.28L48.78 21.7245C49.9674 21.7355 51.1027 22.2141 51.9397 23.0564C52.7767 23.8987 53.248 25.037 53.2515 26.2245V37.5C53.2515 38.091 53.1351 38.6763 52.9088 39.2224C52.6826 39.7685 52.351 40.2646 51.933 40.6825C51.5149 41.1004 51.0187 41.4318 50.4725 41.6579C49.9264 41.8839 49.3411 42.0002 48.75 42ZM11.25 22.9755C10.4544 22.9755 9.69129 23.2915 9.12868 23.8541C8.56607 24.4168 8.25 25.1798 8.25 25.9755V37.5C8.25 38.2956 8.56607 39.0587 9.12868 39.6213C9.69129 40.1839 10.4544 40.5 11.25 40.5H48.75C49.5457 40.5 50.3087 40.1839 50.8713 39.6213C51.4339 39.0587 51.75 38.2956 51.75 37.5V26.2245C51.7477 25.4326 51.4333 24.6737 50.8751 24.1121C50.3169 23.5505 49.5598 23.2316 48.768 23.2245L11.268 22.9755H11.25Z" fill="#000334" fill-opacity="0.7"/>
<path d="M26.9505 27.402L24.8115 35.4H23.2995L21.7065 29.517L20.259 35.4H18.777L16.5915 27.402H18.1215L19.668 33.2325L21.1095 27.402H22.569L24.1635 33.2325L25.6815 27.402H26.9505Z" fill="#000334" fill-opacity="0.7"/>
<path d="M29.862 35.523C28.987 35.523 28.319 35.2085 27.858 34.5795C27.398 33.9536 27.1552 33.1946 27.1665 32.418C27.1395 31.6195 27.4125 30.8399 27.9315 30.2325C28.1815 29.9455 28.4927 29.7182 28.842 29.5671C29.1914 29.416 29.5701 29.3451 29.9505 29.3595C30.3178 29.3498 30.6828 29.4208 31.0198 29.5675C31.3567 29.7142 31.6573 29.933 31.9005 30.2085C32.4105 30.7745 32.6655 31.511 32.6655 32.418C32.6655 33.352 32.401 34.102 31.872 34.668C31.6177 34.9461 31.3067 35.1664 30.9599 35.3139C30.6131 35.4614 30.2387 35.5327 29.862 35.523ZM29.9085 34.422C30.8085 34.422 31.2585 33.752 31.2585 32.412C31.2585 31.807 31.151 31.3295 30.936 30.9795C30.8347 30.8099 30.6888 30.6713 30.5143 30.5788C30.3398 30.4862 30.1432 30.4432 29.946 30.4545C29.7418 30.4425 29.5383 30.4867 29.3575 30.5821C29.1766 30.6776 29.0253 30.8207 28.92 30.996C28.697 31.357 28.5855 31.8365 28.5855 32.4345C28.5855 33.0795 28.7035 33.5715 28.9395 33.9105C29.0436 34.0717 29.1874 34.2034 29.3571 34.293C29.5268 34.3825 29.7167 34.427 29.9085 34.422Z" fill="#000334" fill-opacity="0.7"/>
<path d="M35.229 35.4H33.9V29.4825H35.1V30.9C35.272 30.349 35.5085 29.949 35.8095 29.7C36.062 29.4655 36.3907 29.3302 36.735 29.319H36.9105V30.75C36.2305 30.75 35.7805 30.967 35.5605 31.401C35.3514 31.7886 35.2378 32.2206 35.229 32.661V35.4Z" fill="#000334" fill-opacity="0.7"/>
<path d="M42.735 35.4H41.487V34.2C41.143 35.079 40.561 35.5185 39.741 35.5185C39.4069 35.5308 39.0757 35.453 38.782 35.2934C38.4882 35.1337 38.2429 34.898 38.0715 34.611C37.6845 34.006 37.491 33.256 37.491 32.361C37.472 31.5894 37.6807 30.8293 38.091 30.1755C38.2684 29.8814 38.5211 29.64 38.8231 29.4762C39.125 29.3124 39.4652 29.2323 39.8085 29.244C40.5705 29.244 41.1 29.594 41.397 30.294V27.402H42.7335L42.735 35.4ZM41.4 31.908C41.4 31.428 41.2855 31.054 41.0565 30.786C40.9487 30.656 40.8127 30.5522 40.6588 30.4826C40.505 30.4129 40.3373 30.3792 40.1685 30.384C39.9823 30.3802 39.7985 30.426 39.6359 30.5167C39.4732 30.6073 39.3376 30.7396 39.243 30.9C39.02 31.244 38.9085 31.7575 38.9085 32.4405C38.9085 33.7605 39.3225 34.4205 40.1505 34.4205C40.3178 34.4181 40.4825 34.3788 40.6329 34.3054C40.7833 34.2321 40.9156 34.1264 41.0205 33.996C41.2795 33.6949 41.4151 33.3069 41.4 32.91V31.908Z" fill="#000334" fill-opacity="0.7"/>
</svg>
